<svg width="12" height="11" viewBox="0 0 12 11" fill="none" xmlns="http://www.w3.org/2000/svg">
<path d="M1.05026 0.550275C1.24552 0.355013 1.5621 0.355013 1.75736 0.550275L10.9497 9.74266C11.145 9.93793 11.145 10.2545 10.9497 10.4498C10.7545 10.645 10.4379 10.645 10.2426 10.4498L1.05026 1.25738C0.854993 1.06212 0.854993 0.745537 1.05026 0.550275Z" fill="#173F5F"/>
<path d="M1.05033 10.4497C0.855069 10.2545 0.855069 9.93791 1.05033 9.74264L10.2427 0.550255C10.438 0.354993 10.7546 0.354993 10.9498 0.550255C11.1451 0.745517 11.1451 1.0621 10.9498 1.25736L1.75744 10.4497C1.56218 10.645 1.24559 10.645 1.05033 10.4497Z" fill="#173F5F"/>
</svg>
