<svg width="25" height="25" viewBox="0 0 25 25" fill="none" xmlns="http://www.w3.org/2000/svg">
<g clip-path="url(#clip0_1667_5298)">
<path d="M12.5 0.419067C9.2435 0.419067 8.834 0.434067 7.5545 0.491067C6.275 0.551067 5.4035 0.752067 4.64 1.04907C3.83877 1.34956 3.11321 1.82217 2.5145 2.43357C1.9031 3.03228 1.43049 3.75783 1.13 4.55907C0.833 5.32107 0.6305 6.19407 0.572 7.46907C0.515 8.75157 0.5 9.15957 0.5 12.4206C0.5 15.6786 0.515 16.0866 0.572 17.3661C0.632 18.6441 0.833 19.5156 1.13 20.2791C1.4375 21.0681 1.847 21.7371 2.5145 22.4046C3.1805 23.0721 3.8495 23.4831 4.6385 23.7891C5.4035 24.0861 6.2735 24.2886 7.5515 24.3471C8.8325 24.4041 9.2405 24.4191 12.5 24.4191C15.7595 24.4191 16.166 24.4041 17.447 24.3471C18.7235 24.2871 19.598 24.0861 20.3615 23.7891C21.1622 23.4884 21.8872 23.0158 22.4855 22.4046C23.153 21.7371 23.5625 21.0681 23.87 20.2791C24.1655 19.5156 24.368 18.6441 24.428 17.3661C24.485 16.0866 24.5 15.6786 24.5 12.4191C24.5 9.15957 24.485 8.75157 24.428 7.47057C24.368 6.19407 24.1655 5.32107 23.87 4.55907C23.5695 3.75783 23.0969 3.03228 22.4855 2.43357C21.8868 1.82217 21.1612 1.34956 20.36 1.04907C19.595 0.752067 18.722 0.549567 17.4455 0.491067C16.1645 0.434067 15.758 0.419067 12.497 0.419067H12.5ZM11.4245 2.58207H12.5015C15.7055 2.58207 16.085 2.59257 17.3495 2.65107C18.5195 2.70357 19.1555 2.90007 19.5785 3.06357C20.138 3.28107 20.5385 3.54207 20.9585 3.96207C21.3785 4.38207 21.638 4.78107 21.8555 5.34207C22.0205 5.76357 22.2155 6.39957 22.268 7.56957C22.3265 8.83407 22.3385 9.21357 22.3385 12.4161C22.3385 15.6186 22.3265 15.9996 22.268 17.2641C22.2155 18.4341 22.019 19.0686 21.8555 19.4916C21.6617 20.0119 21.3549 20.4828 20.957 20.8701C20.537 21.2901 20.138 21.5496 19.577 21.7671C19.157 21.9321 18.521 22.1271 17.3495 22.1811C16.085 22.2381 15.7055 22.2516 12.5015 22.2516C9.2975 22.2516 8.9165 22.2381 7.652 22.1811C6.482 22.1271 5.8475 21.9321 5.4245 21.7671C4.90375 21.574 4.4324 21.2676 4.0445 20.8701C3.64591 20.4825 3.33849 20.0111 3.1445 19.4901C2.981 19.0686 2.7845 18.4326 2.732 17.2626C2.675 15.9981 2.663 15.6186 2.663 12.4131C2.663 9.20757 2.675 8.83107 2.732 7.56657C2.786 6.39657 2.981 5.76057 3.146 5.33757C3.3635 4.77807 3.6245 4.37757 4.0445 3.95757C4.4645 3.53757 4.8635 3.27807 5.4245 3.06057C5.8475 2.89557 6.482 2.70057 7.652 2.64657C8.759 2.59557 9.188 2.58057 11.4245 2.57907V2.58207ZM18.9065 4.57407C18.7174 4.57407 18.5301 4.61131 18.3554 4.68368C18.1807 4.75605 18.022 4.86212 17.8883 4.99583C17.7545 5.12955 17.6485 5.28829 17.5761 5.463C17.5037 5.63771 17.4665 5.82496 17.4665 6.01407C17.4665 6.20317 17.5037 6.39042 17.5761 6.56513C17.6485 6.73984 17.7545 6.89858 17.8883 7.0323C18.022 7.16602 18.1807 7.27209 18.3554 7.34445C18.5301 7.41682 18.7174 7.45407 18.9065 7.45407C19.2884 7.45407 19.6547 7.30235 19.9247 7.0323C20.1948 6.76225 20.3465 6.39598 20.3465 6.01407C20.3465 5.63216 20.1948 5.26589 19.9247 4.99583C19.6547 4.72578 19.2884 4.57407 18.9065 4.57407ZM12.5015 6.25707C11.6841 6.24431 10.8723 6.3943 10.1135 6.69828C9.35459 7.00226 8.66377 7.45417 8.08123 8.0277C7.49868 8.60123 7.03605 9.28492 6.72026 10.039C6.40448 10.793 6.24185 11.6023 6.24185 12.4198C6.24185 13.2373 6.40448 14.0466 6.72026 14.8007C7.03605 15.5547 7.49868 16.2384 8.08123 16.8119C8.66377 17.3855 9.35459 17.8374 10.1135 18.1414C10.8723 18.4453 11.6841 18.5953 12.5015 18.5826C14.1193 18.5573 15.6623 17.8969 16.7975 16.7439C17.9326 15.5909 18.5689 14.0378 18.5689 12.4198C18.5689 10.8018 17.9326 9.24869 16.7975 8.09569C15.6623 6.9427 14.1193 6.28231 12.5015 6.25707ZM12.5015 8.41857C13.0269 8.41857 13.5471 8.52204 14.0324 8.72309C14.5178 8.92413 14.9588 9.21881 15.3303 9.59029C15.7018 9.96177 15.9964 10.4028 16.1975 10.8881C16.3985 11.3735 16.502 11.8937 16.502 12.4191C16.502 12.9444 16.3985 13.4646 16.1975 13.95C15.9964 14.4354 15.7018 14.8764 15.3303 15.2478C14.9588 15.6193 14.5178 15.914 14.0324 16.115C13.5471 16.3161 13.0269 16.4196 12.5015 16.4196C11.4405 16.4196 10.423 15.9981 9.67272 15.2478C8.92248 14.4976 8.501 13.4801 8.501 12.4191C8.501 11.3581 8.92248 10.3405 9.67272 9.59029C10.423 8.84005 11.4405 8.41857 12.5015 8.41857Z" fill="#246FD1"/>
</g>
<defs>
<clipPath id="clip0_1667_5298">
<rect width="24" height="24" fill="white" transform="translate(0.5 0.419067)"/>
</clipPath>
</defs>
</svg>
