<svg width="25" height="25" viewBox="0 0 25 25" fill="none" xmlns="http://www.w3.org/2000/svg">
<g clip-path="url(#clip0_1667_5297)">
<path d="M12.5217 4.05383C13.4641 4.05383 14.4307 4.07808 15.3675 4.11776L16.4741 4.17066L17.5333 4.23349L18.5253 4.30072L19.4312 4.37126C20.4144 4.44651 21.3396 4.86608 22.044 5.55614C22.7484 6.2462 23.1868 7.16256 23.2822 8.144L23.3263 8.61242L23.409 9.6154C23.4861 10.6547 23.5435 11.7878 23.5435 12.8712C23.5435 13.9547 23.4861 15.0877 23.409 16.127L23.3263 17.13C23.312 17.2909 23.2977 17.4463 23.2822 17.5984C23.1868 18.58 22.7482 19.4965 22.0436 20.1866C21.339 20.8767 20.4135 21.2962 19.4301 21.3712L18.5264 21.4406L17.5344 21.5089L16.4741 21.5718L15.3675 21.6247C14.4195 21.6659 13.4707 21.6872 12.5217 21.6886C11.5728 21.6872 10.624 21.6659 9.67592 21.6247L8.56934 21.5718L7.51015 21.5089L6.51819 21.4406L5.61221 21.3712C4.62901 21.2959 3.70385 20.8764 2.99948 20.1863C2.2951 19.4962 1.85663 18.5799 1.76121 17.5984L1.71713 17.13L1.63447 16.127C1.55019 15.0438 1.50534 13.9578 1.5 12.8712C1.5 11.7878 1.55731 10.6547 1.63447 9.6154L1.71713 8.61242C1.73146 8.4515 1.74578 8.2961 1.76121 8.144C1.8566 7.16273 2.29491 6.24651 2.99906 5.55647C3.70321 4.86643 4.62811 4.44676 5.6111 4.37126L6.51599 4.30072L7.50794 4.23349L8.56823 4.17066L9.67482 4.11776C10.6232 4.07657 11.5724 4.05526 12.5217 4.05383ZM12.5217 6.25818C11.6124 6.25818 10.6767 6.28243 9.7663 6.3199L8.68837 6.3717L7.65343 6.43232L6.68131 6.49845L5.79076 6.56789C5.3227 6.6011 4.88152 6.79896 4.54541 7.12639C4.2093 7.45382 3.99997 7.88968 3.95454 8.35672C3.82558 9.68924 3.70435 11.348 3.70435 12.8712C3.70435 14.3944 3.82558 16.0532 3.95454 17.3857C4.04822 18.3468 4.81093 19.0941 5.79076 19.1745L6.68131 19.2429L7.65343 19.309L8.68837 19.3707L9.7663 19.4225C10.6767 19.46 11.6124 19.4843 12.5217 19.4843C13.431 19.4843 14.3668 19.46 15.2772 19.4225L16.3551 19.3707L17.39 19.3101L18.3621 19.244L19.2527 19.1745C19.7208 19.1413 20.1619 18.9435 20.4981 18.616C20.8342 18.2886 21.0435 17.8527 21.0889 17.3857C21.2179 16.0532 21.3391 14.3944 21.3391 12.8712C21.3391 11.348 21.2179 9.68924 21.0889 8.35672C21.0435 7.88968 20.8342 7.45382 20.4981 7.12639C20.1619 6.79896 19.7208 6.6011 19.2527 6.56789L18.3621 6.49955L17.39 6.43342L16.3551 6.3717L15.2772 6.3199C14.3592 6.28041 13.4405 6.25983 12.5217 6.25818ZM10.3174 10.1984C10.3173 10.0907 10.3436 9.98461 10.3938 9.88935C10.4441 9.79408 10.5169 9.71254 10.6059 9.65181C10.6949 9.59108 10.7973 9.55301 10.9044 9.5409C11.0114 9.52879 11.1198 9.54301 11.2201 9.58233L11.3093 9.62642L15.9385 12.2981C16.0306 12.3513 16.1086 12.4259 16.1658 12.5157C16.2229 12.6055 16.2576 12.7077 16.2668 12.8137C16.276 12.9198 16.2595 13.0264 16.2186 13.1247C16.1778 13.223 16.1138 13.31 16.0321 13.3782L15.9385 13.4443L11.3093 16.1171C11.2161 16.1711 11.111 16.2015 11.0033 16.2057C10.8955 16.2098 10.7884 16.1875 10.6913 16.1408C10.5942 16.0941 10.5099 16.0243 10.4459 15.9376C10.3819 15.8508 10.34 15.7498 10.324 15.6432L10.3174 15.544V10.1984Z" fill="#246FD1"/>
</g>
<defs>
<clipPath id="clip0_1667_5297">
<rect width="24" height="24" fill="white" transform="translate(0.5 0.419067)"/>
</clipPath>
</defs>
</svg>
