<svg width="14" height="10" viewBox="0 0 14 10" fill="none" xmlns="http://www.w3.org/2000/svg">
<path d="M0 0.5C0 0.223858 0.223858 0 0.5 0H13.5C13.7761 0 14 0.223858 14 0.5C14 0.776142 13.7761 1 13.5 1H0.5C0.223857 1 0 0.776142 0 0.5Z" fill="#173F5F"/>
<path d="M0 5C0 4.72386 0.223858 4.5 0.5 4.5H13.5C13.7761 4.5 14 4.72386 14 5C14 5.27614 13.7761 5.5 13.5 5.5H0.5C0.223857 5.5 0 5.27614 0 5Z" fill="#173F5F"/>
<path d="M0 9.5C0 9.22386 0.223858 9 0.5 9H13.5C13.7761 9 14 9.22386 14 9.5C14 9.77614 13.7761 10 13.5 10H0.5C0.223857 10 0 9.77614 0 9.5Z" fill="#173F5F"/>
</svg>
