<svg width="140" height="140" viewBox="0 0 140 140" fill="none" xmlns="http://www.w3.org/2000/svg">
<path d="M140 70C140 31.3401 108.66 0 70 0C31.3401 0 0 31.3401 0 70C0 108.66 31.3401 140 70 140C108.66 140 140 108.66 140 70ZM17.5 70C17.5 41.0051 41.0051 17.5 70 17.5C98.9949 17.5 122.5 41.0051 122.5 70C122.5 98.9949 98.9949 122.5 70 122.5C41.0051 122.5 17.5 98.9949 17.5 70Z" fill="#004474" fill-opacity="0.49"/>
<path d="M109.564 69.9994L50.2166 35.7349L50.2166 104.264L109.564 69.9994Z" fill="#004474" fill-opacity="0.49"/>
</svg>
