<svg width="190" height="70" viewBox="0 0 190 70" fill="none" xmlns="http://www.w3.org/2000/svg">
<g clip-path="url(#clip0_3109_3511)">
<path d="M4.0459 24.9468V46.2001H22.8598V68.1303H43.7964V46.2001V27.7698V24.9468H4.0459Z" fill="#61A2D9"/>
<path d="M41.9957 70.0003H26.6788C23.5174 70.0003 20.9502 67.3753 20.9502 64.1516V49.2535C20.9502 48.945 20.7144 48.6963 20.4286 48.6963H5.73308C2.57172 48.7009 0 46.0759 0 42.8522V26.6509C0 25.2279 0.539744 23.8878 1.52398 22.8792C2.51276 21.866 3.83263 21.3042 5.23869 21.3042H41.9912C45.1525 21.3042 47.7197 23.9292 47.7197 27.1575V64.1562C47.7197 67.3799 45.148 70.0049 41.9912 70.0049L41.9957 70.0003ZM5.23415 26.591C5.23415 26.591 5.20694 26.6049 5.20694 26.6463V42.8476C5.20694 43.1562 5.44279 43.4049 5.72854 43.4049H20.4195C23.5809 43.4049 26.1481 46.0299 26.1481 49.2535V64.1516C26.1481 64.4601 26.3839 64.7088 26.6697 64.7088H41.9866C42.2724 64.7088 42.5082 64.4601 42.5082 64.1516V27.1529C42.5082 26.8443 42.2724 26.5956 41.9866 26.5956H5.23869L5.23415 26.591Z" fill="#134070"/>
<path d="M36.8473 5.28705H42.0996C42.4035 5.28705 42.6484 5.53574 42.6484 5.84429V11.0114H47.8554V5.84429C47.8554 2.62061 45.27 -0.00439453 42.0951 -0.00439453H36.8428V5.28245L36.8473 5.28705Z" fill="#134070"/>
<path d="M42.6528 15.5293V20.7471C42.6528 23.9707 45.2382 26.5957 48.4131 26.5957H53.8967V21.3089H48.4131C48.1092 21.3089 47.8643 21.0602 47.8643 20.7517V15.5339H42.6574L42.6528 15.5293Z" fill="#134070"/>
<path d="M58.3418 26.5908H63.2403C63.5442 26.5908 63.7891 26.8394 63.7891 27.148V32.246H69.0006V27.148C69.0006 23.9243 66.4153 21.2993 63.2403 21.2993H58.3418V26.5862V26.5908Z" fill="#134070"/>
<path d="M53.8927 43.4092H36.8477V48.696H53.8927V43.4092Z" fill="#134070"/>
<path d="M26.0888 15.5293H20.8818V32.251H26.0888V15.5293Z" fill="#134070"/>
<path d="M26.0889 11.0117V5.84457C26.0889 5.53601 26.3338 5.28733 26.6377 5.28733H32.398V0.000488281H26.6377C23.4628 0.000488281 20.8774 2.62549 20.8774 5.84917V11.0163H26.0844L26.0889 11.0117Z" fill="#134070"/>
<path d="M63.7893 36.7642V43.3543C63.7893 43.3543 63.7893 43.3773 63.7757 43.3957C63.7575 43.4142 63.7485 43.4142 63.7348 43.4142H58.3374V48.701H63.7348C65.1409 48.701 66.4608 48.1438 67.4586 47.1352C68.4519 46.1267 69.0007 44.7819 69.0007 43.3543V36.7642H63.7893Z" fill="#134070"/>
<path d="M32.4028 43.4093H26.6425C26.3386 43.4093 26.0937 43.1561 26.0937 42.8521V36.7686H20.8867V42.8521C20.8867 46.0758 23.472 48.7008 26.647 48.7008H32.4073V43.4139L32.4028 43.4093Z" fill="#134070"/>
<path d="M84.8213 30.441V27.0009C84.8213 26.4437 84.3179 25.9878 83.6965 25.9878H83.5967C82.9753 25.9878 82.4719 26.4391 82.4719 27.0009V29.8055C82.4719 30.5884 82.8257 31.0489 83.0887 31.2792L83.3699 31.4726L88.2548 34.8667C88.2548 34.8667 90.5272 36.193 90.5272 39.3522V44.243C90.5272 47.0891 87.9646 49.3963 84.8032 49.3963H82.4946C79.3332 49.3963 76.7705 47.0891 76.7705 44.243V39.3522H82.4764V43.4601C82.4764 44.0174 82.9799 44.4733 83.6013 44.4733H83.701C84.3224 44.4733 84.8259 44.022 84.8259 43.4601V39.8726C84.8259 39.7022 84.7669 39.0437 84.141 38.6108L78.7345 34.8529C76.5165 33.3101 76.7705 31.1134 76.7705 31.1134V26.2226C76.7705 23.3766 79.3332 21.0693 82.4946 21.0693H84.8032C87.9646 21.0693 90.5272 23.3766 90.5272 26.2226V30.441H84.8213Z" fill="#62A3D9"/>
<path d="M97.9022 21.0645H100.215C103.377 21.0645 105.939 23.3717 105.939 26.2177V44.2335C105.939 47.0796 103.377 49.3868 100.215 49.3868H97.9022C94.7409 49.3868 92.1782 47.0796 92.1782 44.2335V26.2177C92.1782 23.3717 94.7409 21.0645 97.9022 21.0645ZM99.0089 44.4684H99.1087C99.7301 44.4684 100.234 44.0171 100.234 43.4552V27.0006C100.234 26.4434 99.7301 25.9875 99.1087 25.9875H99.0089C98.3875 25.9875 97.8841 26.4388 97.8841 27.0006V43.4552C97.8841 44.0125 98.3875 44.4684 99.0089 44.4684Z" fill="#62A3D9"/>
<path d="M126.781 21.4189V49.0321H121.075V37.4867L117.882 49.0321H116.449L113.256 37.4867V49.0321H107.55V21.4189H113.727L117.165 33.6413L120.603 21.4189H126.781Z" fill="#62A3D9"/>
<path d="M127.969 49.037L132.142 21.4238H138.932L143.105 49.037H138.147L137.608 45.4679H133.462L132.922 49.037H127.965H127.969ZM134.115 41.1896H136.968L135.544 31.7534L134.12 41.1896H134.115Z" fill="#62A3D9"/>
<path d="M151.849 30.4406V27.0004C151.849 26.4432 151.346 25.9873 150.724 25.9873H150.625C150.003 25.9873 149.5 26.4386 149.5 27.0004V29.805C149.5 30.5879 149.854 31.0485 150.117 31.2787L150.398 31.4721L155.283 34.8662C155.283 34.8662 157.555 36.1925 157.555 39.3517V44.2425C157.555 47.0886 154.993 49.3958 151.831 49.3958H149.518C146.357 49.3958 143.794 47.0886 143.794 44.2425V39.3517H149.5V43.4596C149.5 44.0169 150.003 44.4728 150.625 44.4728H150.724C151.346 44.4728 151.849 44.0215 151.849 43.4596V39.8721C151.849 39.7017 151.79 39.0432 151.164 38.6103L145.758 34.8524C143.54 33.3096 143.794 31.1129 143.794 31.1129V26.2221C143.794 23.3761 146.357 21.0688 149.518 21.0688H151.827C154.988 21.0688 157.551 23.3761 157.551 26.2221V30.4406H151.845H151.849Z" fill="#134070"/>
<path d="M172.967 21.4189V44.2104C172.967 47.0564 170.405 49.3637 167.243 49.3637H164.93C161.769 49.3637 159.206 47.0564 159.206 44.2104V21.4189H164.912V43.4275C164.912 43.9847 165.415 44.4407 166.037 44.4407H166.137C166.758 44.4407 167.261 43.9893 167.261 43.4275V21.4189H172.967Z" fill="#134070"/>
<path d="M182.647 30.4406V27.0004C182.647 26.4432 182.143 25.9873 181.522 25.9873H181.422C180.801 25.9873 180.297 26.4386 180.297 27.0004V29.805C180.297 30.5879 180.651 31.0485 180.914 31.2787L181.195 31.4721L186.08 34.8662C186.08 34.8662 188.353 36.1925 188.353 39.3517V44.2425C188.353 47.0886 185.79 49.3958 182.629 49.3958H180.315C177.154 49.3958 174.591 47.0886 174.591 44.2425V39.3517H180.297V43.4596C180.297 44.0169 180.801 44.4728 181.422 44.4728H181.522C182.143 44.4728 182.647 44.0215 182.647 43.4596V39.8721C182.647 39.7017 182.588 39.0432 181.962 38.6103L176.555 34.8524C174.337 33.3096 174.591 31.1129 174.591 31.1129V26.2221C174.591 23.3761 177.154 21.0688 180.315 21.0688H182.624C185.785 21.0688 188.348 23.3761 188.348 26.2221V30.4406H182.642H182.647Z" fill="#134070"/>
</g>
<defs>
<clipPath id="clip0_3109_3511">
<rect width="189.219" height="70" fill="white"/>
</clipPath>
</defs>
</svg>
